<?xml version="1.0" standalone="no"?><!DOCTYPE svg PUBLIC "-//W3C//DTD SVG 1.1//EN" "http://www.w3.org/Graphics/SVG/1.1/DTD/svg11.dtd"><svg class="icon" width="200px" height="200.00px" viewBox="0 0 1024 1024" version="1.1" xmlns="http://www.w3.org/2000/svg"><path d="M257.9 747.94a44 44 0 0 1 0-88h384a44 44 0 0 1 0 88z" fill="#CCCCCC" /><path d="M641.94 679.94a24 24 0 0 1 0 48h-384a24 24 0 0 1 0-48h384m0-40h-384a64 64 0 0 0-64 64 64 64 0 0 0 64 64h384a64 64 0 0 0 64-64 64 64 0 0 0-64-64z"  /><path d="M339.28 619.81v-74a108 108 0 0 1 216 0v74z" fill="#FFFFFF" /><path d="M447.28 457.81a88.09 88.09 0 0 1 88 88v54h-176v-54a88.1 88.1 0 0 1 88-88m0-40a128 128 0 0 0-128 128v94h256v-94a128 128 0 0 0-128-128z"  /><path d="M468.53 527.36l-14.49-3.88 11.1-41.42-44.51 50.19 14.49 3.88-11.1 41.42 44.51-50.19zM829.58 423a20 20 0 0 0-20 20 76 76 0 0 1-152 0V251.5a116 116 0 1 0-232 0v192h40v-192a76 76 0 1 1 152 0V443a116 116 0 0 0 232 0 20 20 0 0 0-20-20z"  /></svg>